<?xml version="1.0" encoding="UTF-8" standalone="no" ?>
<!DOCTYPE svg PUBLIC "-//W3C//DTD SVG 1.1//EN" "http://www.w3.org/Graphics/SVG/1.1/DTD/svg11.dtd">
<svg xmlns="http://www.w3.org/2000/svg" xmlns:xlink="http://www.w3.org/1999/xlink" version="1.1" width="1080" height="1080" viewBox="0 0 1080 1080" xml:space="preserve">
<desc>Created with Fabric.js 5.2.4</desc>
<defs>
</defs>
<rect x="0" y="0" width="100%" height="100%" fill="transparent"></rect>
<g transform="matrix(1 0 0 1 540 540)" id="683f55ea-0218-4fc6-a306-276243a1a244"  >
<rect style="stroke: none; stroke-width: 1; stroke-dasharray: none; stroke-linecap: butt; stroke-dashoffset: 0; stroke-linejoin: miter; stroke-miterlimit: 4; fill: rgb(255,255,255); fill-rule: nonzero; opacity: 1; visibility: hidden;" vector-effect="non-scaling-stroke"  x="-540" y="-540" rx="0" ry="0" width="1080" height="1080" />
</g>
<g transform="matrix(1 0 0 1 540 540)" id="dcd8f7dc-350b-45f8-8245-27bad4e4bf9d"  >
</g>
<g transform="matrix(0.06 0 0 0.06 555.47 593.53)"  >
<g style="" vector-effect="non-scaling-stroke"   >
		<g transform="matrix(1.33 0 0 -1.33 0 -750)" id="path20" clip-path="url(#CLIPPATH_24)"  >
<clipPath id="CLIPPATH_24" >
	<path transform="matrix(1 0 0 1 0 -562.52) translate(-2500, -2500)" id="path14" d="M 0 5000 L 5000 5000 L 5000 0 L 0 0 Z" stroke-linecap="round" />
</clipPath>
<path style="stroke: none; stroke-width: 1; stroke-dasharray: none; stroke-linecap: butt; stroke-dashoffset: 0; stroke-linejoin: miter; stroke-miterlimit: 4; fill: rgb(0,0,0); fill-rule: nonzero; opacity: 1;" vector-effect="non-scaling-stroke"  transform=" translate(642.87, -0.02)" d="M 0 0 C 0 355.054 -287.842 642.871 -642.871 642.871 C -997.9 642.871 -1285.742 355.054 -1285.742 0 C -1285.742 -355.029 -997.9 -642.822 -642.871 -642.822 C -287.842 -642.822 0 -355.029 0 0" stroke-linecap="round" />
</g>
		<g transform="matrix(1.33 0 0 -1.33 1928.58 -535.71)" id="path24" clip-path="url(#CLIPPATH_25)"  >
<clipPath id="CLIPPATH_25" >
	<path transform="matrix(1 0 0 1 -1446.44 -401.81) translate(-2500, -2500)" id="path14" d="M 0 5000 L 5000 5000 L 5000 0 L 0 0 Z" stroke-linecap="round" />
</clipPath>
<path style="stroke: none; stroke-width: 1; stroke-dasharray: none; stroke-linecap: butt; stroke-dashoffset: 0; stroke-linejoin: miter; stroke-miterlimit: 4; fill: rgb(0,0,0); fill-rule: nonzero; opacity: 1;" vector-effect="non-scaling-stroke"  transform=" translate(482.13, -0.02)" d="M 0 0 C 0 266.284 -215.869 482.153 -482.129 482.153 C -748.389 482.153 -964.258 266.284 -964.258 0 C -964.258 -266.284 -748.389 -482.104 -482.129 -482.104 C -215.869 -482.104 0 -266.284 0 0" stroke-linecap="round" />
</g>
		<g transform="matrix(1.33 0 0 -1.33 -1928.58 -535.71)" id="path28" clip-path="url(#CLIPPATH_26)"  >
<clipPath id="CLIPPATH_26" >
	<path transform="matrix(1 0 0 1 1446.44 -401.81) translate(-2500, -2500)" id="path14" d="M 0 5000 L 5000 5000 L 5000 0 L 0 0 Z" stroke-linecap="round" />
</clipPath>
<path style="stroke: none; stroke-width: 1; stroke-dasharray: none; stroke-linecap: butt; stroke-dashoffset: 0; stroke-linejoin: miter; stroke-miterlimit: 4; fill: rgb(0,0,0); fill-rule: nonzero; opacity: 1;" vector-effect="non-scaling-stroke"  transform=" translate(482.13, -0.02)" d="M 0 0 C 0 266.284 -215.82 482.153 -482.129 482.153 C -748.389 482.153 -964.258 266.284 -964.258 0 C -964.258 -266.284 -748.389 -482.104 -482.129 -482.104 C -215.82 -482.104 0 -266.284 0 0" stroke-linecap="round" />
</g>
		<g transform="matrix(1.33 0 0 -1.33 0 964.29)" id="path32" clip-path="url(#CLIPPATH_27)"  >
<clipPath id="CLIPPATH_27" >
	<path transform="matrix(1 0 0 1 0 723.19) translate(-2500, -2500)" id="path14" d="M 0 5000 L 5000 5000 L 5000 0 L 0 0 Z" stroke-linecap="round" />
</clipPath>
<path style="stroke: none; stroke-width: 1; stroke-dasharray: none; stroke-linecap: butt; stroke-dashoffset: 0; stroke-linejoin: miter; stroke-miterlimit: 4; fill: rgb(0,0,0); fill-rule: nonzero; opacity: 1;" vector-effect="non-scaling-stroke"  transform=" translate(-964.31, -482.13)" d="M 0 0 L 1928.613 0 C 1928.613 532.52 1496.875 964.258 964.307 964.258 C 431.738 964.258 0 532.52 0 0" stroke-linecap="round" />
</g>
		<g transform="matrix(1.33 0 0 -1.33 2077.83 964.29)" id="path36" clip-path="url(#CLIPPATH_28)"  >
<clipPath id="CLIPPATH_28" >
	<path transform="matrix(1 0 0 1 -1558.37 723.19) translate(-2500, -2500)" id="path14" d="M 0 5000 L 5000 5000 L 5000 0 L 0 0 Z" stroke-linecap="round" />
</clipPath>
<path style="stroke: none; stroke-width: 1; stroke-dasharray: none; stroke-linecap: butt; stroke-dashoffset: 0; stroke-linejoin: miter; stroke-miterlimit: 4; fill: rgb(0,0,0); fill-rule: nonzero; opacity: 1;" vector-effect="non-scaling-stroke"  transform=" translate(-111.94, 482.13)" d="M 0 0 C -228.027 0 -433.398 -95.41 -579.687 -247.998 C -418.457 -442.676 -321.43600000000004 -692.383 -321.43600000000004 -964.258 L 803.564 -964.258 L 803.564 -803.5640000000001 C 803.564 -359.766 443.799 0 0 0" stroke-linecap="round" />
</g>
		<g transform="matrix(1.33 0 0 -1.33 -2077.83 964.29)" id="path40" clip-path="url(#CLIPPATH_29)"  >
<clipPath id="CLIPPATH_29" >
	<path transform="matrix(1 0 0 1 1558.37 723.19) translate(-2500, -2500)" id="path14" d="M 0 5000 L 5000 5000 L 5000 0 L 0 0 Z" stroke-linecap="round" />
</clipPath>
<path style="stroke: none; stroke-width: 1; stroke-dasharray: none; stroke-linecap: butt; stroke-dashoffset: 0; stroke-linejoin: miter; stroke-miterlimit: 4; fill: rgb(0,0,0); fill-rule: nonzero; opacity: 1;" vector-effect="non-scaling-stroke"  transform=" translate(-691.63, -321.44)" d="M 0 0 L 0 -160.693 L 1125 -160.693 C 1125 111.18199999999999 1222.021 360.889 1383.252 555.566 C 1236.963 708.154 1031.592 803.564 803.564 803.564 C 359.766 803.564 0 443.799 0 0" stroke-linecap="round" />
</g>
</g>
</g>
</svg>