<?xml version="1.0" encoding="UTF-8" standalone="no" ?>
<!DOCTYPE svg PUBLIC "-//W3C//DTD SVG 1.1//EN" "http://www.w3.org/Graphics/SVG/1.1/DTD/svg11.dtd">
<svg xmlns="http://www.w3.org/2000/svg" xmlns:xlink="http://www.w3.org/1999/xlink" version="1.1" width="1080" height="1080" viewBox="0 0 1080 1080" xml:space="preserve">
<desc>Created with Fabric.js 5.2.4</desc>
<defs>
</defs>
<g transform="matrix(1 0 0 1 540 540)" id="683f55ea-0218-4fc6-a306-276243a1a244"  >
<rect style="stroke: none; stroke-width: 1; stroke-dasharray: none; stroke-linecap: butt; stroke-dashoffset: 0; stroke-linejoin: miter; stroke-miterlimit: 4; fill: rgb(255,255,255); fill-rule: nonzero; opacity: 1; visibility: hidden;" vector-effect="non-scaling-stroke"  x="-540" y="-540" rx="0" ry="0" width="1080" height="1080" />
</g>
<g transform="matrix(1 0 0 1 540 540)" id="dcd8f7dc-350b-45f8-8245-27bad4e4bf9d"  >
</g>
<g transform="matrix(1 0 0 1 540 540)"  >
<g style="opacity: 1;" vector-effect="non-scaling-stroke"   >
		<g transform="matrix(1 0 0 1 10.62 -10.09)"  >
<path style="stroke: none; stroke-width: 1; stroke-dasharray: none; stroke-linecap: butt; stroke-dashoffset: 0; stroke-linejoin: miter; stroke-miterlimit: 4; fill: rgb(0,0,0); fill-rule: nonzero; opacity: 1;" vector-effect="non-scaling-stroke"  transform=" translate(-175.94, -408)" d="M 134.94 354 C 131.61599999999999 354 128.94 356.676 128.94 360 L 128.94 456 C 128.94 459.324 131.61599999999999 462 134.94 462 L 216.94 462 C 220.264 462 222.94 459.324 222.94 456 L 222.94 394 L 182.94 394 C 179.61599999999999 394 176.94 391.324 176.94 388 L 176.94 354 L 134.94 354 z" stroke-linecap="round" />
</g>
		<g transform="matrix(1 0 0 1 -10.62 10.09)"  >
<path style="stroke: none; stroke-width: 1; stroke-dasharray: none; stroke-linecap: butt; stroke-dashoffset: 0; stroke-linejoin: miter; stroke-miterlimit: 4; fill: rgb(0,0,0); fill-rule: nonzero; opacity: 1;" vector-effect="non-scaling-stroke"  transform=" translate(-154.66, -428.22)" d="M 113.66 374.22 C 110.336 374.22 107.66 376.896 107.66 380.22 L 107.66 476.22 C 107.66 479.54400000000004 110.336 482.22 113.66 482.22 L 195.66 482.22 C 198.984 482.22 201.66 479.54400000000004 201.66 476.22 L 201.66 469.22 L 128.66 469.22 C 125.336 469.22 122.66 466.54400000000004 122.66 463.22 L 122.66 374.22 L 113.66 374.22 z" stroke-linecap="round" />
</g>
		<g transform="matrix(1 0 0 1 36.58 -46.03)"  >
<path style="stroke: none; stroke-width: 1; stroke-dasharray: none; stroke-linecap: butt; stroke-dashoffset: 0; stroke-linejoin: miter; stroke-miterlimit: 4; fill: rgb(0,0,0); fill-rule: nonzero; opacity: 1;" vector-effect="non-scaling-stroke"  transform=" translate(-201.94, -372)" d="M 180.94 354 L 180.94 384 C 180.94 387.324 183.61599999999999 390 186.94 390 L 222.94 390 z" stroke-linecap="round" />
</g>
</g>
</g>
</svg>