<?xml version="1.0" encoding="UTF-8" standalone="no" ?>
<!DOCTYPE svg PUBLIC "-//W3C//DTD SVG 1.1//EN" "http://www.w3.org/Graphics/SVG/1.1/DTD/svg11.dtd">
<svg xmlns="http://www.w3.org/2000/svg" xmlns:xlink="http://www.w3.org/1999/xlink" version="1.1" width="1080" height="1080" viewBox="0 0 1080 1080" xml:space="preserve">
<desc>Created with Fabric.js 5.2.4</desc>
<defs>
</defs>
<rect x="0" y="0" width="100%" height="100%" fill="transparent"></rect>
<g transform="matrix(1 0 0 1 540 540)" id="683f55ea-0218-4fc6-a306-276243a1a244"  >
<rect style="stroke: none; stroke-width: 1; stroke-dasharray: none; stroke-linecap: butt; stroke-dashoffset: 0; stroke-linejoin: miter; stroke-miterlimit: 4; fill: rgb(255,255,255); fill-rule: nonzero; opacity: 1; visibility: hidden;" vector-effect="non-scaling-stroke"  x="-540" y="-540" rx="0" ry="0" width="1080" height="1080" />
</g>
<g transform="matrix(1 0 0 1 540 540)" id="dcd8f7dc-350b-45f8-8245-27bad4e4bf9d"  >
</g>
<g transform="matrix(13.5 0 0 13.5 498.81 575.33)" id="f8e230be-d5a8-4c95-a427-564af887e1f0"  >
<path style="stroke: rgb(0,0,0); stroke-width: 0; stroke-dasharray: none; stroke-linecap: butt; stroke-dashoffset: 0; stroke-linejoin: miter; stroke-miterlimit: 4; fill: rgb(0,0,0); fill-rule: nonzero; opacity: 1;" vector-effect="non-scaling-stroke"  transform=" translate(-12, -12.05)" d="M 12 2.5 C 12.378665710396096 2.5002022181691355 12.724736457312236 2.7142705884651366 12.894 3.053 L 15.474 8.211 L 21.144 9.035 C 21.52078214513055 9.089715370902574 21.83380439260965 9.353641376128515 21.951397645404413 9.715760670835847 C 22.06899089819917 10.077879965543177 21.970750457541616 10.475357863634127 21.697999999999997 10.741 L 17.570999999999998 14.765 L 18.499 20.439 C 18.559816153225484 20.813653142185565 18.4032851875936 21.190441574998697 18.094900179010452 21.41171576672434 C 17.786515170427304 21.63298995844998 17.379441444434534 21.66060241777165 17.043999999999997 21.483 L 12 18.807 L 6.956 21.482999999999997 C 6.620558555565464 21.660602417771642 6.213484829572696 21.632989958449972 5.905099820989548 21.411715766724335 C 5.596714812406402 21.190441574998694 5.440183846774517 20.81365314218556 5.501 20.438999999999997 L 6.429 14.764999999999997 L 2.3020000000000005 10.740999999999996 C 2.02924954245838 10.475357863634125 1.9310091018008246 10.077879965543174 2.048602354595585 9.715760670835843 C 2.1661956073903457 9.353641376128511 2.4792178548694475 9.08971537090257 2.8560000000000008 9.034999999999997 L 8.526 8.210999999999997 L 11.106 3.0529999999999964 C 11.275263542687766 2.7142705884651344 11.621334289603904 2.500202218169135 12 2.5 z M 12 5.736000000000001 L 10.082 9.572000000000001 C 9.935902679185668 9.864810649030138 9.655785725122819 10.06761532377164 9.332 10.115 L 5.148000000000001 10.723 L 8.198 13.696000000000002 C 8.431930865171864 13.923912707046066 8.539824326934607 14.251699763889278 8.487 14.574000000000002 L 7.8 18.771 L 11.530999999999999 16.791 C 11.824274103081633 16.635264221011955 12.175725896918365 16.635264221011955 12.469 16.791 L 16.2 18.771 L 15.513 14.574000000000002 C 15.460518271719817 14.252027153887635 15.568384964177381 13.924694665011216 15.802 13.697000000000001 L 18.852 10.723 L 14.669 10.115 C 14.345214274877183 10.06761532377164 14.065097320814333 9.864810649030138 13.919 9.572000000000001 L 12 5.736 z" stroke-linecap="round" />
</g>
</svg>