<?xml version="1.0" encoding="UTF-8" standalone="no" ?>
<!DOCTYPE svg PUBLIC "-//W3C//DTD SVG 1.1//EN" "http://www.w3.org/Graphics/SVG/1.1/DTD/svg11.dtd">
<svg xmlns="http://www.w3.org/2000/svg" xmlns:xlink="http://www.w3.org/1999/xlink" version="1.1" width="1080" height="1080" viewBox="0 0 1080 1080" xml:space="preserve">
<desc>Created with Fabric.js 5.2.4</desc>
<defs>
</defs>
<rect x="0" y="0" width="100%" height="100%" fill="transparent"></rect>
<g transform="matrix(1 0 0 1 540 540)" id="683f55ea-0218-4fc6-a306-276243a1a244"  >
<rect style="stroke: none; stroke-width: 1; stroke-dasharray: none; stroke-linecap: butt; stroke-dashoffset: 0; stroke-linejoin: miter; stroke-miterlimit: 4; fill: rgb(255,255,255); fill-rule: nonzero; opacity: 1; visibility: hidden;" vector-effect="non-scaling-stroke"  x="-540" y="-540" rx="0" ry="0" width="1080" height="1080" />
</g>
<g transform="matrix(1 0 0 1 540 540)" id="dcd8f7dc-350b-45f8-8245-27bad4e4bf9d"  >
</g>
<g transform="matrix(0.07 0 0 0.07 506.41 630.61)"  >
<g style="" vector-effect="non-scaling-stroke"   >
		<g transform="matrix(1.33 0 0 -1.33 0 0)" id="path20" clip-path="url(#CLIPPATH_11)"  >
<clipPath id="CLIPPATH_11" >
	<path transform="matrix(1 0 0 1 0 0) translate(-2500, -2500)" id="path14" d="M 0 5000 L 5000 5000 L 5000 0 L 0 0 Z" stroke-linecap="round" />
</clipPath>
<path style="stroke: none; stroke-width: 1; stroke-dasharray: none; stroke-linecap: butt; stroke-dashoffset: 0; stroke-linejoin: miter; stroke-miterlimit: 4; fill: rgb(0,0,0); fill-rule: nonzero; opacity: 1;" vector-effect="non-scaling-stroke"  transform=" translate(0, 2250)" d="M 0 0 C -736.719 0 -1389.673 -354.834 -1800 -902.148 L -1800 -112.5 L -2250 -112.5 L -2250 -1687.5 L -675 -1687.5 L -675 -1237.5 L -1484.937 -1237.5 C -1160.62 -763.013 -616.846 -450 0 -450 C 992.529 -450 1800 -1257.471 1800 -2250 C 1800 -3242.529 992.529 -4050 0 -4050 C -916.162 -4050 -1673.096 -3361.475 -1784.375 -2475 L -2238.77 -2475 C -2125.854 -3611.963 -1166.699 -4500 0 -4500 C 1242.627 -4500 2250 -3492.627 2250 -2250 C 2250 -1007.349 1242.627 0 0 0" stroke-linecap="round" />
</g>
		<g transform="matrix(1.33 0 0 -1.33 750 -750)" id="path24" clip-path="url(#CLIPPATH_12)"  >
<clipPath id="CLIPPATH_12" >
	<path transform="matrix(1 0 0 1 -562.5 -562.5) translate(-2500, -2500)" id="path14" d="M 0 5000 L 5000 5000 L 5000 0 L 0 0 Z" stroke-linecap="round" />
</clipPath>
<path style="stroke: none; stroke-width: 1; stroke-dasharray: none; stroke-linecap: butt; stroke-dashoffset: 0; stroke-linejoin: miter; stroke-miterlimit: 4; fill: rgb(0,0,0); fill-rule: nonzero; opacity: 1;" vector-effect="non-scaling-stroke"  transform=" translate(-787.5, 787.5)" d="M 0 0 L 0 -1575 L 1575 -1575 L 1575 -1125 L 450 -1125 L 450 0 Z" stroke-linecap="round" />
</g>
</g>
</g>
</svg>