<?xml version="1.0" encoding="UTF-8" standalone="no" ?>
<!DOCTYPE svg PUBLIC "-//W3C//DTD SVG 1.1//EN" "http://www.w3.org/Graphics/SVG/1.1/DTD/svg11.dtd">
<svg xmlns="http://www.w3.org/2000/svg" xmlns:xlink="http://www.w3.org/1999/xlink" version="1.1" width="1080" height="1080" viewBox="0 0 1080 1080" xml:space="preserve">
<desc>Created with Fabric.js 5.2.4</desc>
<defs>
</defs>
<rect x="0" y="0" width="100%" height="100%" fill="transparent"></rect>
<g transform="matrix(1 0 0 1 540 540)" id="683f55ea-0218-4fc6-a306-276243a1a244"  >
<rect style="stroke: none; stroke-width: 1; stroke-dasharray: none; stroke-linecap: butt; stroke-dashoffset: 0; stroke-linejoin: miter; stroke-miterlimit: 4; fill: rgb(255,255,255); fill-rule: nonzero; opacity: 1; visibility: hidden;" vector-effect="non-scaling-stroke"  x="-540" y="-540" rx="0" ry="0" width="1080" height="1080" />
</g>
<g transform="matrix(1 0 0 1 540 540)" id="dcd8f7dc-350b-45f8-8245-27bad4e4bf9d"  >
</g>
<g transform="matrix(0.35 0 0 0.35 540 615.36)" id="1e188f0d-2631-4f0d-82f1-6b6f28b2774f"  >
<path style="stroke: rgb(0,0,0); stroke-width: 0; stroke-dasharray: none; stroke-linecap: butt; stroke-dashoffset: 0; stroke-linejoin: miter; stroke-miterlimit: 4; fill: rgb(0,0,0); fill-rule: nonzero; opacity: 1;" vector-effect="non-scaling-stroke"  transform=" translate(-606.2, -600.9)" d="M 1196.1 600.9 C 1195.8 925.5999999999999 933.6999999999999 1191 605.8 1190.8 C 280.09999999999997 1190.6 16.199999999999932 927.6999999999999 16.299999999999955 600.5999999999999 C 16.399999999999956 273.0999999999999 281.4 11.099999999999909 606.3 10.999999999999886 C 931.9 10.899999999999887 1196.1 275.2999999999999 1196.1 600.8999999999999 z M 708.0999999999999 730.0999999999999 C 708.0999999999999 657.3999999999999 707.9999999999999 584.8 708.1999999999999 512.0999999999999 C 708.3 484.5999999999999 698.4999999999999 461.2999999999999 678.1999999999999 443.19999999999993 C 646.1999999999999 414.5999999999999 608.9999999999999 408.5999999999999 569.0999999999999 422.69999999999993 C 530.9999999999999 436.19999999999993 505.4999999999999 472.79999999999995 505.69999999999993 514.1999999999999 C 506.49999999999994 659 506.0999999999999 803.8 505.8999999999999 948.5999999999999 C 505.8999999999999 1030.3999999999999 575.9999999999999 1044.1999999999998 609.4999999999999 1044.1 C 659.8999999999999 1043.8999999999999 709.3999999999999 1003.3 708.3999999999999 944.9999999999999 C 707.0999999999999 873.3999999999999 708.0999999999999 801.6999999999998 708.0999999999999 730.0999999999999 z M 714.9999999999999 265.4999999999999 C 714.8999999999999 205.09999999999988 666.6999999999999 156.9999999999999 606.1999999999999 156.9999999999999 C 545.5999999999999 156.9999999999999 497.19999999999993 205.4999999999999 497.29999999999995 266.0999999999999 C 497.4 325.9999999999999 546.3 374.7999999999999 606.3 374.7999999999999 C 666.6999999999999 374.7999999999999 715 326.1999999999999 715 265.4999999999999 z" stroke-linecap="round" />
</g>
</svg>