<?xml version="1.0" encoding="UTF-8" standalone="no" ?>
<!DOCTYPE svg PUBLIC "-//W3C//DTD SVG 1.1//EN" "http://www.w3.org/Graphics/SVG/1.1/DTD/svg11.dtd">
<svg xmlns="http://www.w3.org/2000/svg" xmlns:xlink="http://www.w3.org/1999/xlink" version="1.1" width="1080" height="1080" viewBox="0 0 1080 1080" xml:space="preserve">
<desc>Created with Fabric.js 5.2.4</desc>
<defs>
</defs>
<rect x="0" y="0" width="100%" height="100%" fill="transparent"></rect>
<g transform="matrix(1 0 0 1 540 540)" id="683f55ea-0218-4fc6-a306-276243a1a244"  >
<rect style="stroke: none; stroke-width: 1; stroke-dasharray: none; stroke-linecap: butt; stroke-dashoffset: 0; stroke-linejoin: miter; stroke-miterlimit: 4; fill: rgb(255,255,255); fill-rule: nonzero; opacity: 1; visibility: hidden;" vector-effect="non-scaling-stroke"  x="-540" y="-540" rx="0" ry="0" width="1080" height="1080" />
</g>
<g transform="matrix(1 0 0 1 540 540)" id="dcd8f7dc-350b-45f8-8245-27bad4e4bf9d"  >
</g>
<g transform="matrix(0.1 0 0 0.1 540 631.73)"  >
<g style="" vector-effect="non-scaling-stroke"   >
		<g transform="matrix(1.33 0 0 -1.33 0 0)" id="path20" clip-path="url(#CLIPPATH_4)"  >
<clipPath id="CLIPPATH_4" >
	<path transform="matrix(1 0 0 1 0 0) translate(-2500, -2500)" id="path14" d="M 0 5000 L 5000 5000 L 5000 0 L 0 0 Z" stroke-linecap="round" />
</clipPath>
<path style="stroke: none; stroke-width: 1; stroke-dasharray: none; stroke-linecap: butt; stroke-dashoffset: 0; stroke-linejoin: miter; stroke-miterlimit: 4; fill: rgb(0,0,0); fill-rule: nonzero; opacity: 1;" vector-effect="non-scaling-stroke"  transform=" translate(1339.94, -1309.03)" d="M 0 0 C -368.75 292.187 -832.91 468.994 -1339.941 468.994 C -1846.997 468.994 -2311.133 292.187 -2679.858 0 C -3010.3520000000003 338.232 -3214.9410000000003 799.951 -3214.9410000000003 1309.033 C -3214.9410000000003 2342.92 -2373.8280000000004 3184.033 -1339.9410000000003 3184.033 C -306.0550000000003 3184.033 535.0589999999997 2342.92 535.0589999999997 1309.033 C 535.059 799.951 330.469 338.232 0 0 M -1339.941 -565.967 C -1726.8310000000001 -565.967 -2086.67 -448.096 -2385.596 -246.48399999999998 C -2091.064 -33.30099999999999 -1730.518 93.99400000000003 -1339.941 93.99400000000003 C -949.365 93.99400000000003 -588.818 -33.25199999999997 -294.23800000000006 -246.48399999999998 C -593.2130000000001 -448.096 -953.027 -565.967 -1339.941 -565.967 M -1339.941 3559.033 C -2582.568 3559.033 -3589.941 2551.685 -3589.941 1309.033 C -3589.941 66.40599999999995 -2582.5679999999998 -940.9670000000001 -1339.9409999999998 -940.9670000000001 C -97.31399999999985 -940.9670000000001 910.0590000000002 66.40599999999995 910.0590000000002 1309.033 C 910.0590000000002 2551.685 -97.31399999999985 3559.033 -1339.9409999999998 3559.033" stroke-linecap="round" />
</g>
		<g transform="matrix(1.33 0 0 -1.33 0 -250)" id="path24" clip-path="url(#CLIPPATH_5)"  >
<clipPath id="CLIPPATH_5" >
	<path transform="matrix(1 0 0 1 0 -187.5) translate(-2500, -2500)" id="path14" d="M 0 5000 L 5000 5000 L 5000 0 L 0 0 Z" stroke-linecap="round" />
</clipPath>
<path style="stroke: none; stroke-width: 1; stroke-dasharray: none; stroke-linecap: butt; stroke-dashoffset: 0; stroke-linejoin: miter; stroke-miterlimit: 4; fill: rgb(0,0,0); fill-rule: nonzero; opacity: 1;" vector-effect="non-scaling-stroke"  transform=" translate(0, -562.5)" d="M 0 0 C -310.156 0 -562.5 252.344 -562.5 562.5 C -562.5 872.656 -310.156 1125 0 1125 C 310.156 1125 562.5 872.656 562.5 562.5 C 562.5 252.344 310.156 0 0 0 M 0 1500 C -517.773 1500 -937.5 1080.273 -937.5 562.5 C -937.5 44.727 -517.773 -375 0 -375 C 517.773 -375 937.5 44.727 937.5 562.5 C 937.5 1080.273 517.773 1500 0 1500" stroke-linecap="round" />
</g>
</g>
</g>
</svg>