<?xml version="1.0" encoding="UTF-8" standalone="no" ?>
<!DOCTYPE svg PUBLIC "-//W3C//DTD SVG 1.1//EN" "http://www.w3.org/Graphics/SVG/1.1/DTD/svg11.dtd">
<svg xmlns="http://www.w3.org/2000/svg" xmlns:xlink="http://www.w3.org/1999/xlink" version="1.1" width="1080" height="1080" viewBox="0 0 1080 1080" xml:space="preserve">
<desc>Created with Fabric.js 5.2.4</desc>
<defs>
</defs>
<rect x="0" y="0" width="100%" height="100%" fill="transparent"></rect>
<g transform="matrix(1 0 0 1 540 540)" id="683f55ea-0218-4fc6-a306-276243a1a244"  >
<rect style="stroke: none; stroke-width: 1; stroke-dasharray: none; stroke-linecap: butt; stroke-dashoffset: 0; stroke-linejoin: miter; stroke-miterlimit: 4; fill: rgb(255,255,255); fill-rule: nonzero; opacity: 1; visibility: hidden;" vector-effect="non-scaling-stroke"  x="-540" y="-540" rx="0" ry="0" width="1080" height="1080" />
</g>
<g transform="matrix(1 0 0 1 540 540)" id="dcd8f7dc-350b-45f8-8245-27bad4e4bf9d"  >
</g>
<g transform="matrix(5.72 0 0 5.72 452.25 481.19)"  >
<path style="stroke: none; stroke-width: 1; stroke-dasharray: none; stroke-linecap: butt; stroke-dashoffset: 0; stroke-linejoin: miter; stroke-miterlimit: 4; fill: rgb(0,0,0); fill-rule: nonzero; opacity: 1;" vector-effect="non-scaling-stroke"  transform=" translate(-25, -25)" d="M 18.623 4.2559 C 10.709800000000001 4.2559 4.256 10.7099 4.256 18.6229 C 4.256 26.5361 10.71 32.989900000000006 18.623 32.989900000000006 C 21.8644 32.989900000000006 24.851300000000002 31.894500000000004 27.259700000000002 30.071900000000007 C 27.306689360996245 30.130005860024234 27.356898078520008 30.18543275864312 27.410090000000004 30.237920000000006 L 42.30809000000001 45.135920000000006 C 42.80964384015006 45.65875069243209 43.55471355221111 45.8694894502176 44.25581339786119 45.68682255680855 C 44.956913243511266 45.504155663399494 45.504425663399495 44.956643243511266 45.68709255680855 44.25554339786119 C 45.8697594502176 43.55444355221111 45.659020692432094 42.80937384015006 45.136190000000006 42.30782000000001 L 30.238190000000007 27.409820000000007 C 30.18570275864312 27.35662807852001 30.13027586002423 27.306419360996248 30.072170000000007 27.259430000000005 C 31.89467000000001 24.851030000000005 32.990170000000006 21.864130000000007 32.990170000000006 18.622730000000004 C 32.990170000000006 10.709530000000004 26.536170000000006 4.255730000000003 18.623170000000005 4.255730000000003 z M 18.623 7.845699999999999 C 24.596200000000003 7.845699999999999 29.4 12.649899999999999 29.4 18.6227 C 29.4 24.5959 24.595799999999997 29.399699999999996 18.622999999999998 29.399699999999996 C 12.650199999999998 29.399699999999996 7.845999999999998 24.595499999999994 7.845999999999998 18.622699999999995 C 7.846000199999998 12.649499999999994 12.650199999999998 7.8456999999999955 18.622999999999998 7.8456999999999955 z" stroke-linecap="round" />
</g>
</svg>