<?xml version="1.0" encoding="UTF-8" standalone="no" ?>
<!DOCTYPE svg PUBLIC "-//W3C//DTD SVG 1.1//EN" "http://www.w3.org/Graphics/SVG/1.1/DTD/svg11.dtd">
<svg xmlns="http://www.w3.org/2000/svg" xmlns:xlink="http://www.w3.org/1999/xlink" version="1.1" width="1080" height="1080" viewBox="0 0 1080 1080" xml:space="preserve">
<desc>Created with Fabric.js 5.2.4</desc>
<defs>
</defs>
<g transform="matrix(1 0 0 1 540 540)" id="6b79834f-91aa-4043-8064-2d4606709008"  >
</g>
<g transform="matrix(1 0 0 1 540 540)" id="3436a71c-f3c0-4432-83c6-3ae27a0bcf6d"  >
<rect style="stroke: none; stroke-width: 1; stroke-dasharray: none; stroke-linecap: butt; stroke-dashoffset: 0; stroke-linejoin: miter; stroke-miterlimit: 4; fill: rgb(255,255,255); fill-rule: nonzero; opacity: 1; visibility: hidden;" vector-effect="non-scaling-stroke"  x="-540" y="-540" rx="0" ry="0" width="1080" height="1080" />
</g>
<g transform="matrix(1 0 0 1 50 50)"  >
<rect style="stroke: none; stroke-width: 1; stroke-dasharray: none; stroke-linecap: butt; stroke-dashoffset: 0; stroke-linejoin: miter; stroke-miterlimit: 4; fill: rgb(255,255,255); fill-opacity: 0; fill-rule: nonzero; opacity: 1;" vector-effect="non-scaling-stroke"  x="-50" y="-50" rx="0" ry="0" width="100" height="100" />
</g>
<g transform="matrix(1 0 0 1 540 540)"  >
<rect style="stroke: none; stroke-width: 1; stroke-dasharray: none; stroke-linecap: butt; stroke-dashoffset: 0; stroke-linejoin: miter; stroke-miterlimit: 4; fill: rgb(255,255,255); fill-rule: nonzero; opacity: 1; visibility: hidden;" vector-effect="non-scaling-stroke"  x="-540" y="-540" rx="0" ry="0" width="1080" height="1080" />
</g>
<g transform="matrix(0.27 0 0 0.27 540 540)"  >
<path style="stroke: rgb(0,0,0); stroke-width: 50; stroke-dasharray: none; stroke-linecap: butt; stroke-dashoffset: 0; stroke-linejoin: miter; stroke-miterlimit: 4; fill: rgb(0,0,0); fill-opacity: 0; fill-rule: evenodd; opacity: 1;" vector-effect="non-scaling-stroke"  transform=" translate(-789.27, -883.2)" d="M 789.67 170 L 794.8425 170 L 817.1234999999999 181.37 Q 839.4044999999999 192.74 846.5664999999999 196.269 Q 853.7283999999999 199.7978 895.3064999999999 219.20600000000002 Q 936.8854999999999 238.61400000000003 938.2774999999999 238.81 Q 939.6700999999999 239.00604 960.3594999999999 248.024 Q 981.0495 257.04200000000003 992.1895 261.355 Q 1003.3304999999999 265.668 1024.4175 273.117 Q 1045.5055 280.5667 1051.0755 282.5271 Q 1056.6458 284.4877 1065.0014999999999 287.23220000000003 Q 1073.3571 289.9768 1086.4875 293.8976 Q 1099.6179 297.8184 1119.9095 303.3077 Q 1140.2015 308.7968 1159.2995 313.1098 Q 1178.3975 317.4227 1183.9685000000002 318.5989 Q 1189.5389000000002 319.7751 1219.3795000000002 325.2643 Q 1249.2205000000001 330.7537 1256.7805000000003 331.9298 Q 1264.3402000000003 333.1061 1293.7835000000002 337.8113 Q 1323.2265000000002 342.5163 1323.6245000000001 342.5163 Q 1324.0223300000002 342.5163 1352.2715 348.0056 Q 1380.5215 353.49490000000003 1380.7195000000002 353.6908 L 1380.9186000000002 353.88680000000005 L 1379.7250000000001 412.30780000000004 Q 1378.5313 470.72880000000004 1373.7567000000001 563.2578000000001 Q 1368.9820000000002 655.7898000000001 1366.1970000000001 692.6478000000001 Q 1363.4117 729.5038000000001 1359.8308000000002 755.7738 Q 1356.2500000000002 782.0438 1351.4753000000003 805.5688 Q 1346.7008000000003 829.0938 1341.1303000000003 853.0108 Q 1335.5599000000002 876.9278 1331.1833000000004 894.9628 Q 1326.8066000000003 912.9988000000001 1320.8383000000003 933.7788 Q 1314.8700000000003 954.5598 1313.6764000000003 958.8728000000001 Q 1312.4827000000002 963.1857000000001 1310.0955000000004 969.8508 Q 1307.7082000000003 976.5162 1304.5251000000003 986.3188 Q 1301.3422000000003 996.1207 1294.5782000000004 1014.5488 Q 1287.8142000000005 1032.9769000000001 1283.4372000000003 1043.9558 Q 1279.0604000000003 1054.9338 1272.6942000000004 1070.2258 Q 1266.3282000000004 1085.5167999999999 1256.3812000000003 1107.0818 Q 1246.4343000000003 1128.6468 1244.4452000000003 1132.1758 Q 1242.4558000000004 1135.7046 1229.9222000000004 1157.8578 Q 1217.3892000000005 1180.0108 1214.8032000000005 1184.1278 Q 1212.2169000000006 1188.2449 1202.4692000000005 1204.9088 Q 1192.7210000000005 1221.5728 1189.7372000000005 1226.0808 Q 1186.7532000000006 1230.5898 1180.5860000000005 1240.1958 Q 1174.4189000000006 1249.802 1170.6390000000006 1255.0947999999999 Q 1166.8591000000006 1260.3879 1161.8857000000005 1267.6417999999999 Q 1156.9122000000004 1274.8953 1152.3365000000006 1280.9727999999998 Q 1147.7609000000007 1287.0502999999999 1145.1746000000005 1291.1667999999997 Q 1142.5884000000005 1295.2835999999998 1137.6150000000005 1301.7527999999998 Q 1132.6414000000004 1308.2221999999997 1128.0658000000005 1314.6917999999998 Q 1123.4901000000004 1321.1612999999998 1118.1188000000006 1328.0227999999997 Q 1112.7473000000007 1334.8841999999997 1108.9674000000007 1339.7847999999997 Q 1105.1875000000007 1344.6856999999998 1092.8534000000006 1358.4087999999997 Q 1080.5193000000006 1372.1318999999996 1063.8074000000006 1389.7757999999997 Q 1047.0964000000006 1407.4197999999997 1034.3634000000006 1419.9667999999997 Q 1021.6314000000007 1432.5137999999997 1017.4534000000007 1435.8457999999996 Q 1013.2755000000006 1439.1785999999995 997.9574000000007 1452.7057999999995 Q 982.6393000000007 1466.2329999999995 979.2574000000006 1469.1737999999996 Q 975.8753000000006 1472.1143999999995 962.5464000000006 1483.6807999999996 Q 949.2175000000007 1495.2471999999998 945.0394000000007 1498.5797999999995 Q 940.8617000000007 1501.9123999999995 935.4903000000007 1506.4214999999995 Q 930.1189000000007 1510.9303999999995 920.5703000000008 1518.7724999999996 Q 911.0211000000007 1526.6141999999995 906.0473000000007 1530.3384999999996 Q 901.0738000000008 1534.0631999999996 896.4982000000008 1537.0038999999997 Q 891.9225000000008 1539.9444999999996 879.7872000000008 1547.1978999999997 Q 867.6522000000008 1554.4513999999997 863.8722000000008 1556.9999999999998 Q 860.0924000000008 1559.5484999999999 855.3178000000008 1562.2929999999997 Q 850.5433000000008 1565.0377999999996 845.3708000000008 1568.5663999999997 Q 840.1983000000008 1572.0950999999998 837.8111000000008 1573.6633999999997 Q 835.4237000000008 1575.2318999999998 827.4661000000008 1579.1526999999996 Q 819.5085000000008 1583.0735999999997 808.3681000000008 1588.1707999999996 Q 797.2271000000009 1593.2676999999996 792.8511000000008 1594.8361999999997 L 788.4744000000007 1596.4045999999998 L 783.6999000000008 1595.2282999999998 Q 778.9254000000008 1594.0520999999997 773.3549000000007 1591.3073999999997 Q 767.7845000000008 1588.5628999999997 754.6549000000007 1581.8973999999996 Q 741.5249000000007 1575.2319999999995 739.5359000000007 1573.6634999999997 Q 737.5465000000006 1572.0950999999995 729.3899000000007 1566.8021999999996 Q 721.2333000000007 1561.5088999999996 717.0559000000007 1558.9602999999997 Q 712.8782000000008 1556.4117999999996 700.7429000000008 1549.1582999999998 Q 688.6079000000008 1541.9044999999999 684.0319000000007 1538.9642999999999 Q 679.4563000000007 1536.0237 674.4829000000008 1532.299 Q 669.5093000000007 1528.5742 663.1429000000007 1523.477 Q 656.7768000000008 1518.3798000000002 646.2329000000008 1509.558 Q 635.6889000000008 1500.736 627.9309000000007 1494.267 Q 620.1723000000007 1487.7976 605.2519000000008 1474.663 Q 590.3315000000008 1461.5284 586.1539000000008 1458.195 Q 581.9762000000009 1454.8624 567.8519000000008 1442.512 Q 553.7269000000008 1430.1609999999998 552.1359000000008 1428.5929999999998 Q 550.5444000000008 1427.0244999999998 538.0109000000008 1414.6739999999998 Q 525.4779000000008 1402.3239999999998 520.5039000000008 1397.0299999999997 Q 515.5304000000009 1391.7368999999997 498.6199000000008 1373.5049999999997 Q 481.70940000000076 1355.2730999999997 478.3279000000008 1351.1559999999997 Q 474.9459000000008 1347.0391999999997 468.3809000000008 1339.0019999999997 Q 461.8159000000008 1330.9642999999996 458.03590000000077 1326.0629999999996 Q 454.25610000000074 1321.1617999999996 450.47620000000074 1315.8689999999997 Q 446.6962000000008 1310.5759999999998 442.51850000000076 1304.8909999999996 Q 438.34080000000074 1299.2057999999997 434.95880000000074 1294.6969999999997 Q 431.57680000000073 1290.1880999999996 429.18950000000075 1286.6594999999998 Q 426.80220000000077 1283.1305999999997 422.62450000000075 1277.4452999999999 Q 418.44680000000074 1271.7601 415.46260000000075 1267.2513 Q 412.47860000000077 1262.7423999999999 407.50510000000077 1255.4893 Q 402.53170000000074 1248.2355 399.9455000000008 1244.1193 Q 397.35930000000076 1240.0024 391.59000000000077 1231.1803 Q 385.8207000000008 1222.3584 384.03030000000075 1219.0253 Q 382.23980000000074 1215.6924 374.08330000000075 1202.1663 Q 365.9267000000007 1188.6393 363.34030000000075 1184.5223 Q 360.75410000000073 1180.4056 350.40930000000077 1161.9773 Q 340.0645000000008 1143.549 334.8923000000008 1134.1393 Q 329.71980000000076 1124.7291 325.74110000000076 1116.4953 Q 321.7623000000008 1108.2615 314.60010000000074 1091.7943 Q 307.43820000000073 1075.3263 307.43820000000073 1074.9343000000001 Q 307.43820000000073 1074.54221 300.27630000000073 1056.8983 Q 293.11460000000073 1039.2543 289.1353000000007 1029.0603 Q 285.15650000000073 1018.8663000000001 277.9943000000007 998.0853000000001 Q 270.8324000000007 977.3043000000001 263.6703000000007 953.7793 Q 256.5084000000007 930.2543000000001 247.7553000000007 896.5353 Q 239.0019000000007 862.8163 235.42130000000068 846.3493 Q 231.84040000000067 829.8823 225.47430000000068 798.5153 Q 219.10830000000067 767.1483000000001 217.9146000000007 757.3463 Q 216.72100000000069 747.5443 212.74210000000068 697.3573 Q 208.76330000000067 647.1703 207.56970000000067 621.6843 Q 206.37600000000066 596.1983 204.78450000000066 567.5763000000001 Q 203.19290000000066 538.9543000000001 200.40780000000066 473.8683000000001 Q 197.62260000000066 408.7823000000001 197.62260000000066 381.7283000000001 L 197.62260000000066 354.67430000000013 L 200.20880000000065 353.3021000000001 Q 202.79500000000064 351.9298000000001 214.33380000000065 349.9693000000001 Q 225.87280000000064 348.0089000000001 246.16380000000066 344.8722000000001 Q 266.45580000000064 341.7354000000001 307.83580000000063 334.67820000000006 Q 349.2158000000006 327.6206000000001 367.1198000000006 324.48420000000004 Q 385.0248000000006 321.3475 414.46780000000064 314.682 Q 443.9108000000007 308.0165 465.39680000000067 302.135 Q 486.88280000000066 296.2537 502.39980000000065 291.157 Q 517.9168000000006 286.05989999999997 526.6708000000007 283.3153 Q 535.4241000000006 280.5707 543.3818000000007 277.82599999999996 Q 551.3394000000006 275.0814 575.2118000000007 266.06399999999996 Q 599.0848000000008 257.04609999999997 619.9728000000007 247.83199999999997 Q 640.8618000000007 238.61799999999997 642.2538000000006 238.42199999999997 Q 643.6463000000007 238.22588999999996 662.3468000000006 229.60009999999997 Q 681.0468000000006 220.97419999999997 696.1668000000006 213.91709999999998 Q 711.2858000000007 206.85949999999997 726.0078000000007 199.80209999999997 Q 740.7298000000006 192.74449999999996 762.6128000000007 181.37409999999997 L 784.4958000000007 170.00409999999997 L 789.6683000000007 170.00409999999997 z" stroke-linecap="round" />
</g>
<g transform="matrix(2.68 0 0 2.68 540 540)"  >
<path style="stroke: rgb(0,0,0); stroke-width: 0; stroke-dasharray: none; stroke-linecap: butt; stroke-dashoffset: 0; stroke-linejoin: miter; stroke-miterlimit: 4; fill: rgb(0,0,0); fill-rule: nonzero; opacity: 1;" vector-effect="non-scaling-stroke"  transform=" translate(-50, -50)" d="M 14.148 44.105 L 18.091 40.162 C 20.01 38.242 23.176000000000002 38.242 25.096 40.162 L 42.164 57.230999999999995 L 74.904 24.440999999999995 C 76.823 22.521999999999995 79.98899999999999 22.521999999999995 81.90899999999999 24.440999999999995 L 85.851 28.383999999999997 C 87.771 30.302999999999997 87.771 33.415 85.851 35.334999999999994 L 45.641 75.54499999999999 L 45.537 75.64899999999999 L 45.433 75.75299999999999 L 45.329 75.80499999999999 L 45.277 75.90899999999999 L 45.173 75.961 L 45.069 76.065 L 44.965 76.117 L 44.861000000000004 76.16900000000001 L 44.757000000000005 76.27400000000002 L 44.653000000000006 76.32400000000001 L 44.54900000000001 76.37800000000001 L 44.44500000000001 76.43000000000002 L 44.34100000000001 76.48200000000003 L 44.23700000000001 76.53400000000003 L 44.08000000000001 76.58600000000004 L 43.97600000000001 76.63800000000005 L 43.872000000000014 76.69000000000005 L 43.768000000000015 76.74200000000006 L 43.664000000000016 76.74200000000006 L 43.56000000000002 76.79400000000007 L 43.405000000000015 76.84700000000007 L 43.301000000000016 76.84700000000007 L 43.19700000000002 76.89900000000007 L 42.93800000000002 76.89900000000007 L 42.83400000000002 76.95100000000008 L 42.62600000000002 76.95100000000008 L 42.47100000000002 77.00300000000009 L 41.795000000000016 77.00300000000009 L 41.640000000000015 76.95100000000008 L 41.432000000000016 76.95100000000008 L 41.32800000000002 76.89900000000007 L 41.06900000000002 76.89900000000007 L 40.96500000000002 76.84700000000007 L 40.86100000000002 76.84700000000007 L 40.70600000000002 76.79400000000007 L 40.60200000000002 76.74200000000006 L 40.49800000000002 76.74200000000006 L 40.39400000000002 76.69000000000005 L 40.29000000000002 76.63800000000005 L 40.185000000000024 76.58600000000004 L 40.081000000000024 76.53400000000003 L 40.029000000000025 76.53400000000003 C 39.563000000000024 76.32500000000003 39.096000000000025 75.96200000000003 38.630000000000024 75.54800000000003 L 14.140000000000025 51.059000000000026 C 12.229 49.137 12.229 46.025 14.148 44.105 z" stroke-linecap="round" />
</g>
</svg>