<?xml version="1.0" encoding="UTF-8" standalone="no" ?>
<!DOCTYPE svg PUBLIC "-//W3C//DTD SVG 1.1//EN" "http://www.w3.org/Graphics/SVG/1.1/DTD/svg11.dtd">
<svg xmlns="http://www.w3.org/2000/svg" xmlns:xlink="http://www.w3.org/1999/xlink" version="1.1" width="1080" height="1080" viewBox="0 0 1080 1080" xml:space="preserve">
<desc>Created with Fabric.js 5.2.4</desc>
<defs>
</defs>
<rect x="0" y="0" width="100%" height="100%" fill="transparent"></rect>
<g transform="matrix(1 0 0 1 540 540)" id="683f55ea-0218-4fc6-a306-276243a1a244"  >
<rect style="stroke: none; stroke-width: 1; stroke-dasharray: none; stroke-linecap: butt; stroke-dashoffset: 0; stroke-linejoin: miter; stroke-miterlimit: 4; fill: rgb(255,255,255); fill-rule: nonzero; opacity: 1; visibility: hidden;" vector-effect="non-scaling-stroke"  x="-540" y="-540" rx="0" ry="0" width="1080" height="1080" />
</g>
<g transform="matrix(1 0 0 1 540 540)" id="dcd8f7dc-350b-45f8-8245-27bad4e4bf9d"  >
</g>
<g transform="matrix(9.91 0 0 9.91 540 633.64)" id="view_simple-[#815]"  >
<path style="stroke: rgb(0,0,0); stroke-width: 0; stroke-dasharray: none; stroke-linecap: butt; stroke-dashoffset: 0; stroke-linejoin: miter; stroke-miterlimit: 4; fill: rgb(0,0,0); fill-rule: nonzero; opacity: 1;" vector-effect="non-scaling-stroke"  transform=" translate(-214, -4409)" d="M 216 4409.00052 C 216 4410.14768 215.105 4411.07682 214 4411.07682 C 212.895 4411.07682 212 4410.14768 212 4409.00052 C 212 4407.85336 212.895 4406.92421 214 4406.92421 C 215.105 4406.92421 216 4407.85336 216 4409.00052 M 214 4412.9237 C 211.011 4412.9237 208.195 4411.44744 206.399 4409.00052 C 208.195 4406.55359 211.011 4405.0763 214 4405.0763 C 216.989 4405.0763 219.805 4406.55359 221.601 4409.00052 C 219.805 4411.44744 216.989 4412.9237 214 4412.9237 M 214 4403 C 209.724 4403 205.999 4405.41682 204 4409.00052 C 205.999 4412.58422 209.724 4415 214 4415 C 218.276 4415 222.001 4412.58422 224 4409.00052 C 222.001 4405.41682 218.276 4403 214 4403" stroke-linecap="round" />
</g>
<g transform="matrix(1 0 0 1 644.16 689.85)" id="3780cc72-60f0-4aa6-9bbc-5ebc0ae91a1f"  >
<path style="stroke: rgb(0,0,0); stroke-width: 0; stroke-dasharray: none; stroke-linecap: butt; stroke-dashoffset: 0; stroke-linejoin: miter; stroke-miterlimit: 4; fill: rgb(0,0,0); fill-rule: nonzero; opacity: 1;" vector-effect="non-scaling-stroke"  transform=" translate(-50, -50)" d="M 40.747 13.955 L 59.254000000000005 13.955 C 60.353 13.955 61.242000000000004 14.845 61.242000000000004 15.941 L 61.242000000000004 38.787 L 84.08600000000001 38.787 C 85.18400000000001 38.787 86.07000000000001 39.675 86.07000000000001 40.772999999999996 L 86.07000000000001 59.226 C 86.07000000000001 60.324999999999996 85.183 61.211999999999996 84.08600000000001 61.211999999999996 L 61.242 61.211999999999996 L 61.242 84.05799999999999 C 61.242 85.157 60.352 86.044 59.254 86.044 L 40.747 86.044 C 39.652 86.044 38.762 85.15599999999999 38.762 84.05799999999999 L 38.762 61.213 L 15.915 61.213 C 14.819999999999999 61.213 13.93 60.325 13.93 59.227000000000004 L 13.93 40.773 C 13.93 39.67400000000001 14.82 38.787000000000006 15.915 38.787000000000006 L 38.762 38.787000000000006 L 38.762 15.941 C 38.762 14.845 39.651 13.955 40.747 13.955 z" stroke-linecap="round" />
</g>
</svg>