<?xml version="1.0" encoding="UTF-8" standalone="no" ?>
<!DOCTYPE svg PUBLIC "-//W3C//DTD SVG 1.1//EN" "http://www.w3.org/Graphics/SVG/1.1/DTD/svg11.dtd">
<svg xmlns="http://www.w3.org/2000/svg" xmlns:xlink="http://www.w3.org/1999/xlink" version="1.1" width="1080" height="1080" viewBox="0 0 1080 1080" xml:space="preserve">
<desc>Created with Fabric.js 5.2.4</desc>
<defs>
</defs>
<rect x="0" y="0" width="100%" height="100%" fill="transparent"></rect>
<g transform="matrix(1 0 0 1 540 540)" id="dcd8f7dc-350b-45f8-8245-27bad4e4bf9d"  >
</g>
<g transform="matrix(1 0 0 1 540 540)" id="683f55ea-0218-4fc6-a306-276243a1a244"  >
<rect style="stroke: none; stroke-width: 1; stroke-dasharray: none; stroke-linecap: butt; stroke-dashoffset: 0; stroke-linejoin: miter; stroke-miterlimit: 4; fill: rgb(255,255,255); fill-rule: nonzero; opacity: 1; visibility: hidden;" vector-effect="non-scaling-stroke"  x="-540" y="-540" rx="0" ry="0" width="1080" height="1080" />
</g>
<g transform="matrix(1 0 0 1 499.8 589.34)"  >
<g style="" vector-effect="non-scaling-stroke"   >
		<g transform="matrix(1 0 0 1 -50.59 0)"  >
<path style="stroke: none; stroke-width: 1; stroke-dasharray: none; stroke-linecap: butt; stroke-dashoffset: 0; stroke-linejoin: miter; stroke-miterlimit: 4; fill: rgb(0,0,0); fill-rule: nonzero; opacity: 1;" vector-effect="non-scaling-stroke"  transform=" translate(-299.15, -347.67)" d="M 435.82 349.83 C 435.873 348.181 437.123 346.227 438.599 345.488 L 468.567 330.481 C 470.04200000000003 329.742 471.036 327.805 470.77500000000003 326.175 L 463.86600000000004 294.332 C 463.42400000000004 292.742 461.71400000000006 291.355 460.06800000000004 291.248 L 425.98800000000006 289.044 C 424.34100000000007 288.93699999999995 422.38300000000004 287.64599999999996 421.63700000000006 286.17499999999995 L 417.00300000000004 277.65399999999994 C 416.17300000000006 276.22799999999995 416.182 273.8999999999999 417.02400000000006 272.48099999999994 L 434.23300000000006 243.46499999999995 C 435.07500000000005 242.04599999999994 434.8740000000001 239.86899999999994 433.78700000000003 238.62799999999996 L 410.59900000000005 214.98399999999995 C 409.379 213.87299999999996 407.20000000000005 213.61899999999994 405.75800000000004 214.41999999999996 L 376.105 230.87499999999994 C 374.66200000000003 231.67599999999993 372.327 231.63099999999994 370.915 230.77699999999993 L 362.90200000000004 226.22599999999994 C 361.44500000000005 225.45199999999994 360.20400000000006 223.46899999999994 360.14500000000004 221.81999999999994 L 358.925 187.82599999999994 C 358.866 186.17699999999994 357.52500000000003 184.43799999999993 355.946 183.96099999999993 L 323.83000000000004 176.27699999999993 C 322.206 175.98299999999992 320.23900000000003 176.93099999999993 319.458 178.38499999999993 L 303.51000000000005 208.07099999999994 C 302.72900000000004 209.52499999999995 301.4080000000001 210.70099999999994 300.57400000000007 210.68499999999995 L 299.81300000000005 210.68499999999995 C 295.18500000000006 210.68499999999995 289.09600000000006 211.14399999999995 289.09600000000006 211.14399999999995 C 287.4510000000001 211.26799999999994 285.33400000000006 210.26099999999994 284.3930000000001 208.90499999999994 L 264.8980000000001 180.83699999999993 C 263.9570000000001 179.48199999999994 261.8860000000001 178.73399999999992 260.2960000000001 179.17399999999992 L 229.62000000000012 189.52199999999993 C 228.0890000000001 190.13799999999995 226.94200000000012 191.98799999999994 227.0710000000001 193.63299999999992 L 229.68600000000012 226.99499999999992 C 229.8150000000001 228.63999999999993 228.78600000000012 230.71799999999993 227.40000000000012 231.61299999999991 L 217.6470000000001 238.36599999999993 C 216.32200000000012 239.34899999999993 213.9910000000001 239.63799999999992 212.4660000000001 239.00699999999992 L 180.8830000000001 225.93099999999993 C 179.3580000000001 225.29999999999993 177.20800000000008 225.78699999999992 176.1040000000001 227.01299999999992 L 156.4200000000001 251.4219999999999 C 155.4550000000001 252.7599999999999 155.4810000000001 254.92999999999992 156.4790000000001 256.2439999999999 L 176.61900000000009 282.7699999999999 C 177.61700000000008 284.08399999999995 177.8660000000001 286.3839999999999 177.1730000000001 287.88199999999995 L 171.69600000000008 300.99399999999997 C 171.11700000000008 302.539 169.31400000000008 304.04299999999995 167.69000000000008 304.33599999999996 L 134.18300000000008 310.38699999999994 C 132.55900000000008 310.67999999999995 131.0190000000001 312.25299999999993 130.75900000000007 313.8829999999999 C 130.75900000000007 313.8829999999999 127.48100000000007 334.48799999999994 127.48100000000007 346.7879999999999 L 127.48100000000007 346.85399999999987 C 127.48200000000007 346.92699999999985 128.75200000000007 347.4489999999999 130.30100000000007 348.0149999999999 L 161.57000000000008 359.43599999999986 C 163.1200000000001 360.00199999999984 164.5780000000001 361.80199999999985 164.8110000000001 363.4349999999999 L 167.7420000000001 379.4169999999999 C 168.10800000000012 381.0259999999999 167.4190000000001 383.26199999999994 166.2120000000001 384.38699999999994 L 141.4460000000001 407.45199999999994 C 140.23900000000012 408.57699999999994 139.8080000000001 410.72599999999994 140.48900000000012 412.2289999999999 L 153.99600000000012 438.4169999999999 C 154.82800000000012 439.8419999999999 156.82600000000014 440.71199999999993 158.43600000000012 440.3499999999999 L 191.05500000000012 433.0209999999999 C 192.66500000000013 432.6589999999999 194.8750000000001 433.3749999999999 195.96700000000013 434.6119999999999 L 207.99100000000013 447.1149999999999 C 209.18400000000014 448.2549999999999 209.82700000000014 450.4949999999999 209.41900000000012 452.0939999999999 L 201.11700000000013 484.6419999999999 C 200.70900000000015 486.2409999999999 201.51600000000013 488.2719999999999 202.91000000000014 489.15499999999986 L 228.37400000000014 503.5049999999999 C 229.85100000000014 504.2409999999999 232.00700000000015 503.8819999999999 233.16600000000014 502.70799999999986 L 256.7860000000001 478.76399999999984 C 257.9450000000001 477.5889999999998 260.1970000000001 476.9789999999998 261.79000000000013 477.4069999999998 L 278.58500000000015 481.1399999999998 C 280.2090000000002 481.42999999999984 281.96500000000015 482.9479999999998 282.48600000000016 484.51399999999984 L 293.02500000000015 516.1629999999998 C 293.54600000000016 517.7279999999998 295.3220000000002 519.0469999999998 296.97200000000015 519.0939999999998 C 296.97200000000015 519.0939999999998 297.85600000000017 519.1189999999998 299.8100000000002 519.1189999999998 C 309.94100000000014 519.1189999999998 326.54100000000017 516.9489999999998 326.54100000000017 516.9489999999998 C 328.1770000000002 516.7349999999998 329.79400000000015 515.2389999999998 330.13300000000015 513.6239999999998 L 337.10900000000015 480.4699999999998 C 337.4490000000001 478.8549999999998 339.0070000000002 477.1059999999998 340.5720000000002 476.5829999999998 L 355.3480000000002 470.9809999999998 C 356.86600000000016 470.3329999999998 359.1580000000002 470.6499999999998 360.4430000000002 471.68499999999983 L 386.3630000000002 492.5659999999998 C 387.64800000000025 493.60099999999983 389.8160000000002 493.6899999999998 391.1810000000002 492.7629999999998 L 415.5130000000002 474.3109999999998 C 416.7730000000002 473.24499999999983 417.3230000000002 471.1119999999998 416.7360000000002 469.5699999999998 L 404.6020000000002 437.7029999999998 C 404.0150000000002 436.16099999999983 404.3720000000002 433.8399999999998 405.3950000000002 432.5459999999998 L 413.4280000000002 421.59599999999983 C 414.3560000000002 420.23199999999986 416.4570000000002 419.25899999999984 418.09800000000024 419.4359999999998 L 451.26100000000025 422.9959999999998 C 452.90200000000027 423.1719999999998 454.77800000000025 422.0759999999998 455.43100000000027 420.5609999999998 L 466.29400000000027 390.8549999999998 C 466.7760000000003 389.2769999999998 466.08500000000026 387.1839999999998 464.7570000000003 386.2049999999998 L 437.2350000000003 365.89399999999983 C 435.9070000000003 364.9139999999998 434.9490000000003 362.76899999999983 435.1060000000003 361.12599999999986 L 435.8200000000003 349.82999999999987 z M 299.37 447.861 C 243.905 447.861 198.94 402.89799999999997 198.94 347.431 C 198.94 291.965 243.903 247.00099999999998 299.37 247.00099999999998 C 354.837 247.00099999999998 399.8 291.964 399.8 347.431 C 399.8 402.89799999999997 354.837 447.861 299.37 447.861 z" stroke-linecap="round" />
</g>
		<g transform="matrix(1 0 0 1 222.26 -25.67)"  >
<ellipse style="stroke: none; stroke-width: 1; stroke-dasharray: none; stroke-linecap: butt; stroke-dashoffset: 0; stroke-linejoin: miter; stroke-miterlimit: 4; fill: rgb(0,0,0); fill-rule: nonzero; opacity: 1;" vector-effect="non-scaling-stroke"  cx="0" cy="0" rx="0" ry="2" />
</g>
</g>
</g>
</svg>